<svg xmlns="http://www.w3.org/2000/svg" width="51.642" height="56" viewBox="0 0 51.642 56"><defs><style>.a{fill:#c1c8d2;}.b{fill:#e4eaf8;}.c{fill:#fff;}.d{fill:#ffc843;}.e{fill:#ffa816;}.f{fill:#434c54;}</style></defs><g transform="translate(-19.92)"><path class="a" d="M348.142,226.276q-.165,0-.325.008a7.863,7.863,0,1,0,.325-.008Zm0,12.105a4.16,4.16,0,0,1-.688-.056,4.212,4.212,0,0,1,.363-8.355q.161-.012.325-.012a4.212,4.212,0,0,1,0,8.423Z" transform="translate(-285.293 -201.527)"/><path class="b" d="M343.931,234.235a4.211,4.211,0,0,0,3.524,4.156,14.825,14.825,0,0,1-1.257,3.5,7.893,7.893,0,0,1,1.62-15.536v3.686A4.212,4.212,0,0,0,343.931,234.235Z" transform="translate(-285.293 -201.593)"/><path class="c" d="M146.36,206.931v9.745a15.011,15.011,0,1,1-30.021.163v-9.908a1.084,1.084,0,0,1,1.084-1.084h27.853A1.084,1.084,0,0,1,146.36,206.931Z" transform="translate(-85.873 -183.333)"/><g transform="translate(30.466 30.412)"><path class="b" d="M128.908,340.827a6.3,6.3,0,0,1-.613.949,15.026,15.026,0,0,1-9.885-11.582,4.932,4.932,0,0,1,1.051.531,5.08,5.08,0,0,1,1.822,2.21,9.494,9.494,0,0,1,1.463-.116c3.4,0,6.153,1.888,6.69,4.589A5.154,5.154,0,0,1,128.908,340.827Z" transform="translate(-118.183 -324.492)"/><path class="b" d="M146.361,278.052v3.094a15.01,15.01,0,0,1-30.021,0v-3.094a15.01,15.01,0,0,0,30.021,0Z" transform="translate(-116.34 -278.052)"/></g><rect class="a" width="24.011" height="3.948" transform="translate(33.47 51.231)"/><path class="d" d="M112.2,377.631a6.153,6.153,0,0,1-4.3,2.88c-2.992.594-5.765-.669-6.193-2.825,0-.019-.007-.036-.009-.055-.384-2.137,1.685-4.334,4.651-4.923,2.992-.594,5.765.669,6.193,2.825A3.157,3.157,0,0,1,112.2,377.631Z" transform="translate(-72.788 -331.812)"/><g transform="translate(28.859 42.904)"><path class="e" d="M112.572,418.911a6.153,6.153,0,0,1-4.3,2.88c-2.992.594-5.765-.669-6.193-2.825,0-.019-.007-.036-.009-.055h10.505Z" transform="translate(-102.021 -415.996)"/><path class="e" d="M107.9,398.057c-2.991.595-5.764-.67-6.192-2.824a2.884,2.884,0,0,1-.04-.867c.881,1.644,3.308,2.523,5.9,2.008s4.5-2.255,4.681-4.111a2.885,2.885,0,0,1,.295.816C112.967,395.234,110.889,397.463,107.9,398.057Z" transform="translate(-101.65 -392.263)"/></g><path class="d" d="M56.322,353a7.813,7.813,0,0,1-.529.7c-1.715,2.022-4.2,2.782-5.846,1.68a3.152,3.152,0,0,1-1.232-1.68,6.134,6.134,0,0,1,.993-5.121c1.695-2.537,4.549-3.6,6.375-2.382S58.017,350.465,56.322,353Z" transform="translate(-25.457 -307.884)"/><g transform="translate(23.258 37.947)"><path class="e" d="M57.516,418.912c-1.715,2.022-4.2,2.782-5.846,1.68a3.152,3.152,0,0,1-1.232-1.68Z" transform="translate(-50.438 -411.041)"/><path class="e" d="M62.85,354.116c-1.695,2.536-4.549,3.6-6.375,2.381a2.888,2.888,0,0,1-.641-.585c1.786.54,4.123-.555,5.59-2.75s1.585-4.773.4-6.217a2.884,2.884,0,0,1,.786.369C64.438,348.536,64.545,351.581,62.85,354.116Z" transform="translate(-55.243 -346.946)"/></g><path class="c" d="M27.415,436.056v1.961l12.688,2.41H64.2l12.688-2.41v-1.961Z" transform="translate(-6.675 -388.362)"/><g transform="translate(40.993 0)"><path class="d" d="M270.071,16.394a.82.82,0,1,0,.874,1.389,5.621,5.621,0,0,0,.892-8.828,5.621,5.621,0,0,0-.892-8.828.82.82,0,1,0-.874,1.389,3.981,3.981,0,0,1,0,6.745.829.829,0,0,0,0,1.389,3.981,3.981,0,0,1,0,6.745Z" transform="translate(-263.441 0)"/><path class="d" d="M322.853,82.628a.82.82,0,1,0,.874,1.389,5.622,5.622,0,0,0,0-9.522.82.82,0,1,0-.874,1.389,3.981,3.981,0,0,1,0,6.745Z" transform="translate(-310.45 -66.234)"/><path class="d" d="M212.968,82.627a.82.82,0,1,0,.874,1.389,5.622,5.622,0,0,0,0-9.523.82.82,0,0,0-.874,1.389,3.981,3.981,0,0,1,0,6.745Z" transform="translate(-212.584 -66.233)"/></g><path class="a" d="M114.236,229.321h0a.823.823,0,0,1,.82-.82h28.931a.823.823,0,0,1,.82.82h0a.823.823,0,0,1-.82.82H115.056A.823.823,0,0,1,114.236,229.321Z" transform="translate(-84 -203.509)"/><path class="f" d="M70.213,223.521H62.292a.82.82,0,1,0,0,1.641h7.1v.463l-11.944,2.268H33.505l-11.944-2.268v-.463H59.246a.82.82,0,0,0,0-1.641H53.955a15.876,15.876,0,0,0,5.621-6.154A8.625,8.625,0,0,0,62.85,218a8.713,8.713,0,1,0-1.543-17.289v-.469a1.906,1.906,0,0,0-1.9-1.9h-3.88a.82.82,0,0,0,0,1.641H59.4a.264.264,0,0,1,.263.264v9.907a14.1,14.1,0,0,1-4.155,10.035,14.279,14.279,0,0,1-5.265,3.333H40.708c-.265-.094-.528-.2-.788-.306a4.1,4.1,0,0,0,.633-3V220.2a4.3,4.3,0,0,0-2.6-3.025,7.54,7.54,0,0,0-4.559-.44q-.22.044-.437.1a14.176,14.176,0,0,1-1.673-6.685v-9.907a.264.264,0,0,1,.264-.264H52.475a.82.82,0,1,0,0-1.641H31.55a1.906,1.906,0,0,0-1.9,1.9v9.907a15.872,15.872,0,0,0,.427,3.655,5.208,5.208,0,0,0-4.378.908.82.82,0,1,0,.926,1.354,3.754,3.754,0,0,1,2.775-.741l-2.988,4.47a.82.82,0,1,0,1.364.912l2.989-4.472A3.2,3.2,0,0,1,31.249,218h0s0,0,0,0a5.957,5.957,0,0,1-1.066,3.3,6.448,6.448,0,0,1-1.4,1.521,5.171,5.171,0,0,1-1.156.691H25.034c-.03-.018-.059-.036-.089-.055-1.366-.912-1.452-3.271-.2-5.371a.82.82,0,1,0-1.408-.842,7.376,7.376,0,0,0-1.1,4.2,4.836,4.836,0,0,0,.589,2.07H20.74a.82.82,0,0,0-.82.82V226.3a.82.82,0,0,0,.667.806L32.65,229.4v2.428a.82.82,0,0,0,.82.82H57.482a.82.82,0,0,0,.82-.82V229.4l12.064-2.291a.82.82,0,0,0,.667-.806v-1.962A.82.82,0,0,0,70.213,223.521Zm-8.907-13.368v-3.881a3.391,3.391,0,1,1-.136,5.963A16.048,16.048,0,0,0,61.306,210.153Zm-.447,3.76a5.032,5.032,0,1,0,.447-9.413V202.47s0-.006,0-.008,0-.006,0-.008v-.064a7.073,7.073,0,1,1,1.543,13.976,7,7,0,0,1-2.6-.5A15.654,15.654,0,0,0,60.859,213.913Zm-29.312,8.309a7.809,7.809,0,0,0,1.32-3.645,6.843,6.843,0,0,1,.848-.228c2.087-.414,4.1.214,4.9,1.409L33.346,220.8a.82.82,0,1,0,.32,1.609l5.275-1.049a3.183,3.183,0,0,1-.888,1.578l0,0a4.943,4.943,0,0,1-.675.574h-6.9A8.29,8.29,0,0,0,31.547,222.222Zm25.114,8.786H34.291v-1.474h22.37Z" transform="translate(0 -176.648)"/></g></svg>