<svg xmlns="http://www.w3.org/2000/svg" width="59.931" height="56" viewBox="0 0 59.931 56"><defs><style>.a{fill:#67e5dd;}.b{fill:#96ede7;}.c{fill:#c0f4f1;}</style></defs><g transform="translate(0 -16.793)"><path class="a" d="M100.869,171.941H72.1a1.56,1.56,0,0,0-1.308.71l-6.54,10.07a1.56,1.56,0,0,0,.143,1.887l20.913,23.479a1.56,1.56,0,0,0,2.33,0l20.915-23.48a1.56,1.56,0,0,0,.145-1.886l-6.52-10.069A1.56,1.56,0,0,0,100.869,171.941Z" transform="translate(-56.509 -136.987)"/><path class="b" d="M102.187,172.653a1.56,1.56,0,0,0-1.309-.712H72.11a1.56,1.56,0,0,0-1.308.71l-6.54,10.07a1.557,1.557,0,0,0-.241,1.025h44.926a1.557,1.557,0,0,0-.239-1.024Z" transform="translate(-56.518 -136.987)"/><path class="c" d="M206.32,272.793l-7.591,24.641-7.591-24.641Z" transform="translate(-168.764 -226.034)"/><path class="a" d="M191.137,184.3l7.591-11.732L206.32,184.3Z" transform="translate(-168.764 -137.54)"/><g transform="translate(6.884 35.027)"><path class="c" d="M58.813,184.3,66.4,172.567,74,184.3Z" transform="translate(-58.813 -172.567)"/><path class="c" d="M319.146,184.3l7.591-11.732,7.591,11.732Z" transform="translate(-288.673 -172.567)"/></g><path d="M94.343,163.187a2.72,2.72,0,0,0-2.292-1.246H63.283a2.721,2.721,0,0,0-2.29,1.243l-6.54,10.07a2.737,2.737,0,0,0,.251,3.3l20.913,23.479a2.733,2.733,0,0,0,2.039.914h0a2.733,2.733,0,0,0,2.039-.914l20.915-23.48a2.737,2.737,0,0,0,.253-3.3Zm-10.681,12.9-6.006,19.494L71.65,176.087Zm-11.446-2.341,5.44-8.407,5.44,8.407Zm7.544-9.464H90.73l-5.484,8.479Zm-9.68,8.456-5.47-8.456H75.552Zm5.35,23.568-18.01-20.219H69.2Zm10.682-20.219H97.893l-18.011,20.22Zm12.28-2.341H87.4l5.493-8.494Zm-35.946-8.5,5.5,8.5H56.925Z" transform="translate(-47.691 -128.158)"/><path d="M3.551,262.793H1.171a1.171,1.171,0,0,0,0,2.341h2.38a1.171,1.171,0,0,0,0-2.341Z" transform="translate(0 -217.205)"/><path d="M475.218,262.793h-2.38a1.171,1.171,0,0,0,0,2.341h2.38a1.171,1.171,0,0,0,0-2.341Z" transform="translate(-416.457 -217.205)"/><path d="M388.028,95.126a1.167,1.167,0,0,0,.828-.343l3.888-3.888a1.171,1.171,0,0,0-1.655-1.655L387.2,93.128a1.171,1.171,0,0,0,.828,2Z" transform="translate(-341.574 -63.664)"/><path d="M76.589,94.6a1.171,1.171,0,0,0,1.655-1.655l-3.888-3.888A1.171,1.171,0,0,0,72.7,90.716Z" transform="translate(-63.888 -63.506)"/><path d="M247.425,26.762a1.171,1.171,0,0,0,1.171-1.171V17.964a1.171,1.171,0,1,0-2.341,0v7.628A1.171,1.171,0,0,0,247.425,26.762Z" transform="translate(-217.429)"/><path d="M247.421,118.131a1.171,1.171,0,1,0-.828-.343A1.174,1.174,0,0,0,247.421,118.131Z" transform="translate(-217.426 -87.409)"/></g></svg>