<svg xmlns="http://www.w3.org/2000/svg" width="49.453" height="56" viewBox="0 0 49.453 56"><defs><style>.a{fill:#ffb954;}.b{fill:#ff5d5d;}.c{fill:#fff;}</style></defs><g transform="translate(-29.928)"><circle class="a" cx="18.813" cy="18.813" r="18.813" transform="translate(35.842 1.094)"/><g transform="translate(31.021 33.07)"><path class="b" d="M59.972,308.38l-9.127,15.808-3.028-7.365-7.892,1.06,8.967-15.531Z" transform="translate(-39.925 -302.351)"/><path class="b" d="M288.779,308.38l9.127,15.808,3.028-7.365,7.892,1.06-8.967-15.531Z" transform="translate(-261.56 -302.351)"/></g><circle class="c" cx="13.125" cy="13.125" r="13.125" transform="translate(41.529 6.781)"/><path class="a" d="M193.219,112.73l2.384,4.826,5.327.773-3.854,3.758.911,5.305-4.765-2.5-4.764,2.506.908-5.306-3.856-3.756,5.327-.775Z" transform="translate(-138.566 -100.4)"/><path d="M193.065,109.083a1.094,1.094,0,0,0-.883-.744l-4.758-.69-2.129-4.311a1.094,1.094,0,0,0-.981-.609h0a1.094,1.094,0,0,0-.981.61l-2.127,4.312-4.758.693a1.094,1.094,0,0,0-.606,1.866l3.444,3.355-.811,4.739a1.094,1.094,0,0,0,1.587,1.153l4.255-2.238,4.256,2.236a1.094,1.094,0,0,0,1.587-1.153l-.814-4.738,3.442-3.357A1.094,1.094,0,0,0,193.065,109.083Zm-5.657,3.314a1.094,1.094,0,0,0-.314.968l.536,3.121-2.8-1.473a1.094,1.094,0,0,0-1.018,0l-2.8,1.474.535-3.121a1.094,1.094,0,0,0-.315-.968l-2.268-2.21,3.134-.456a1.094,1.094,0,0,0,.823-.6l1.4-2.84,1.4,2.839a1.094,1.094,0,0,0,.824.6l3.134.455Z" transform="translate(-129.661 -91.492)"/><path d="M79.235,48.056,70.195,32.331a19.906,19.906,0,1,0-31.081,0L30.073,48.056a1.094,1.094,0,0,0,1.094,1.629l7.056-.948,2.707,6.585a1.094,1.094,0,0,0,.939.675l.073,0a1.094,1.094,0,0,0,.947-.547l9.127-15.808,0-.007a19.957,19.957,0,0,0,5.269,0l0,.007,9.127,15.808a1.094,1.094,0,0,0,.947.547l.073,0a1.094,1.094,0,0,0,.939-.675l2.708-6.585,7.056.948a1.093,1.093,0,0,0,1.093-1.629ZM42.107,52.432l-1.971-4.793L41.9,44.753A1.094,1.094,0,1,0,40.04,43.61l-1.787,2.917-5.177.7,7.577-13.179A19.906,19.906,0,0,0,49.747,39.2ZM36.935,19.906A17.719,17.719,0,1,1,54.654,37.625,17.739,17.739,0,0,1,36.935,19.906Zm34.12,26.62L69.268,43.61A1.094,1.094,0,1,0,67.4,44.753l1.769,2.886L67.2,52.432,59.561,39.2a19.905,19.905,0,0,0,9.094-5.158l7.577,13.179Z"/><path d="M207.587,72.338a14.093,14.093,0,0,0,1.381-6.119,14.223,14.223,0,0,0-21.183-12.4,1.094,1.094,0,0,0,1.073,1.906A12.036,12.036,0,0,1,205.613,71.4a1.094,1.094,0,1,0,1.974.942Z" transform="translate(-140.095 -46.312)"/><path d="M332.178,255.93l-.024.025a1.094,1.094,0,1,0,1.565,1.528l.029-.03a1.094,1.094,0,1,0-1.57-1.523Z" transform="translate(-268.893 -227.642)"/><path d="M146.012,139.38a12.037,12.037,0,0,1-16.753-15.527,1.094,1.094,0,1,0-1.991-.907,14.224,14.224,0,0,0,19.8,18.35,1.094,1.094,0,0,0-1.056-1.916Z" transform="translate(-85.561 -108.929)"/><path d="M159.078,92.427a1.091,1.091,0,0,0,.8-.351l.019-.021a1.094,1.094,0,1,0-1.6-1.491l-.024.026a1.094,1.094,0,0,0,.8,1.837Z" transform="translate(-114.051 -80.349)"/></g></svg>