<svg xmlns="http://www.w3.org/2000/svg" width="47.757" height="56" viewBox="0 0 47.757 56"><defs><style>.a{fill:#ffb954;}.b{fill:#ff5d5d;}.c{fill:#000003;}</style></defs><g transform="translate(-37.681 0)"><g transform="translate(38.859 1.178)"><path class="a" d="M83.767,32.205,69.246,46.726a2.653,2.653,0,0,1-3.751,0L58.539,39.77a2.653,2.653,0,0,1,3.751-3.752l5.08,5.08L80.015,28.454a2.653,2.653,0,0,1,3.751,3.751ZM71.152,10.768a92.091,92.091,0,0,1-22.7,9.628V32.432c0,22.581,19.529,31.98,22.7,31.98s22.7-9.4,22.7-31.98V20.4A94.966,94.966,0,0,1,71.152,10.768Z" transform="translate(-48.452 -10.768)"/><path class="b" d="M145.059,184.415l14.521-14.521a2.653,2.653,0,1,0-3.751-3.751l-12.645,12.645-5.08-5.08a2.653,2.653,0,0,0-3.751,3.752l6.956,6.955A2.653,2.653,0,0,0,145.059,184.415Z" transform="translate(-124.265 -148.457)"/></g><g transform="translate(37.681 0)"><path class="c" d="M84.571,9.67A93.153,93.153,0,0,1,62.159.163a1.177,1.177,0,0,0-1.2,0A90.6,90.6,0,0,1,38.548,9.67a1.178,1.178,0,0,0-.867,1.136V22.842A34.627,34.627,0,0,0,48.2,48.141C53.36,53.2,59.376,56,61.56,56s8.2-2.8,13.364-7.859a34.627,34.627,0,0,0,10.515-25.3V10.806A1.178,1.178,0,0,0,84.571,9.67ZM83.082,22.842a32.317,32.317,0,0,1-9.808,23.616C68.2,51.434,62.767,53.644,61.56,53.644s-6.637-2.209-11.715-7.185a32.318,32.318,0,0,1-9.808-23.616V11.7A92.773,92.773,0,0,0,61.56,2.543,95.709,95.709,0,0,0,83.082,11.7Z" transform="translate(-37.681 0)"/><path class="c" d="M89.1,99.69a1.178,1.178,0,0,0-1.528-.664c-2.1.829-4.264,1.592-6.42,2.269a1.178,1.178,0,0,0-.825,1.124v4.549a1.178,1.178,0,1,0,2.356,0v-3.688c1.934-.626,3.865-1.318,5.753-2.062A1.178,1.178,0,0,0,89.1,99.69Z" transform="translate(-75.663 -88.121)"/><path class="c" d="M171.383,88.568a1.179,1.179,0,0,0,.472-.1l.022-.009a1.178,1.178,0,1,0-.951-2.155l-.019.008a1.178,1.178,0,0,0,.476,2.256Z" transform="translate(-155.708 -76.776)"/><path class="c" d="M312.189,345.72a1.178,1.178,0,0,0-1.631.342,28.671,28.671,0,0,1-3.385,4.228,30.087,30.087,0,0,1-3.379,3.006,1.178,1.178,0,1,0,1.429,1.873,32.471,32.471,0,0,0,3.644-3.242,31,31,0,0,0,3.664-4.577A1.178,1.178,0,0,0,312.189,345.72Z" transform="translate(-274.275 -307.736)"/><path class="c" d="M277.219,432.128l-.068.04a1.178,1.178,0,1,0,1.18,2.039l.078-.046a1.178,1.178,0,1,0-1.191-2.033Z" transform="translate(-250.436 -384.72)"/><path class="c" d="M129.358,163.286a3.831,3.831,0,1,0-5.417,5.417l6.956,6.956a3.832,3.832,0,0,0,5.417,0l14.521-14.521a3.831,3.831,0,0,0-5.418-5.417l-11.812,11.812Zm17.725-5.9a1.475,1.475,0,1,1,2.085,2.085l-14.52,14.521a1.476,1.476,0,0,1-2.086,0l-6.956-6.955a1.475,1.475,0,0,1,2.085-2.086l5.08,5.08a1.178,1.178,0,0,0,1.666,0Z" transform="translate(-113.509 -137.69)"/></g></g></svg>